solid hanger
facet normal -1.0 0.0 -2.25597318603832e-015
outer loop
vertex -62.5 -1.40998324127395e-015 20.0
vertex -62.4999999999999 -5.0 -1.40998324127395e-014
vertex -62.5 -5.0 20.0
endloop
endfacet
facet normal -1.0 0.0 -2.25597318603832e-015
outer loop
vertex -62.4999999999999 -5.0 -1.40998324127395e-014
vertex -62.5 -1.40998324127395e-015 20.0
vertex -62.4999999999999 -1.40998324127395e-015 -1.40998324127395e-014
endloop
endfacet
facet normal 5.56617393936303e-016 2.93422857588222e-018 -1.0
outer loop
vertex -5.0 87.5 0.0
vertex -15.5 85.0000000000001 -9.16489106828067e-015
vertex -15.5 87.5 -9.16489106828067e-015
endloop
endfacet
facet normal 5.56617393936303e-016 2.93422857588222e-018 -1.0
outer loop
vertex -15.5 85.0000000000001 -9.16489106828067e-015
vertex -5.0 87.5 0.0
vertex -7.5 85.0000000000001 -1.23373533611471e-015
endloop
endfacet
facet normal 5.56617393936303e-016 2.93422857588222e-018 -1.0
outer loop
vertex -7.5 85.0000000000001 -1.23373533611471e-015
vertex -5.0 87.5 0.0
vertex -7.5 2.5 -1.23373533611471e-015
endloop
endfacet
facet normal 5.56617393936303e-016 2.93422857588222e-018 -1.0
outer loop
vertex -57.4999999999999 2.5 -3.94795307556706e-014
vertex -54.9999999999999 -1.40998324127395e-015 -4.22994972382185e-014
vertex -57.4999999999999 -2.5 -3.94795307556706e-014
endloop
endfacet
facet normal 5.56617393936303e-016 2.93422857588222e-018 -1.0
outer loop
vertex -54.9999999999999 -1.40998324127395e-015 -4.22994972382185e-014
vertex -57.4999999999999 2.5 -3.94795307556706e-014
vertex -7.5 2.5 -1.23373533611471e-015
endloop
endfacet
facet normal 5.56617393936303e-016 2.93422857588222e-018 -1.0
outer loop
vertex -54.9999999999999 -1.40998324127395e-015 -4.22994972382185e-014
vertex -7.5 2.5 -1.23373533611471e-015
vertex -5.0 -1.40998324127395e-015 0.0
endloop
endfacet
facet normal 5.56617393936303e-016 2.93422857588222e-018 -1.0
outer loop
vertex -5.0 -1.40998324127395e-015 0.0
vertex -7.5 2.5 -1.23373533611471e-015
vertex -5.0 87.5 0.0
endloop
endfacet
facet normal 5.56617393936303e-016 2.93422857588222e-018 -1.0
outer loop
vertex -59.9999999999999 -1.40998324127395e-015 -3.38395977905748e-014
vertex -62.4999999999999 -5.0 -1.40998324127395e-014
vertex -62.4999999999999 -1.40998324127395e-015 -1.40998324127395e-014
endloop
endfacet
facet normal 5.56617393936303e-016 2.93422857588222e-018 -1.0
outer loop
vertex -62.4999999999999 -5.0 -1.40998324127395e-014
vertex -59.9999999999999 -1.40998324127395e-015 -3.38395977905748e-014
vertex -59.9999999999999 -2.5 -3.38395977905748e-014
endloop
endfacet
facet normal 5.56617393936303e-016 2.93422857588222e-018 -1.0
outer loop
vertex -62.4999999999999 -5.0 -1.40998324127395e-014
vertex -59.9999999999999 -2.5 -3.38395977905748e-014
vertex -54.9999999999999 -5.0 -4.22994972382185e-014
endloop
endfacet
facet normal 5.56617393936303e-016 2.93422857588222e-018 -1.0
outer loop
vertex -54.9999999999999 -5.0 -4.22994972382185e-014
vertex -59.9999999999999 -2.5 -3.38395977905748e-014
vertex -57.4999999999999 -2.5 -3.94795307556706e-014
endloop
endfacet
facet normal 5.56617393936303e-016 2.93422857588222e-018 -1.0
outer loop
vertex -54.9999999999999 -5.0 -4.22994972382185e-014
vertex -57.4999999999999 -2.5 -3.94795307556706e-014
vertex -54.9999999999999 -1.40998324127395e-015 -4.22994972382185e-014
endloop
endfacet
facet normal -3.35040689560048e-016 1.37782865707122e-017 1.0
outer loop
vertex -62.5 -5.0 20.0
vertex -59.9999999999999 -2.5 20.0
vertex -62.5 -1.40998324127395e-015 20.0
endloop
endfacet
facet normal -3.35040689560048e-016 1.37782865707122e-017 1.0
outer loop
vertex -59.9999999999999 -2.5 20.0
vertex -62.5 -5.0 20.0
vertex -55.0 -5.0 20.0
endloop
endfacet
facet normal -3.35040689560048e-016 1.37782865707122e-017 1.0
outer loop
vertex -59.9999999999999 -2.5 20.0
vertex -55.0 -5.0 20.0
vertex -57.5 -2.5 20.0
endloop
endfacet
facet normal -3.35040689560048e-016 1.37782865707122e-017 1.0
outer loop
vertex -57.5 -2.5 20.0
vertex -55.0 -5.0 20.0
vertex -57.5 2.5 20.0
endloop
endfacet
facet normal -3.35040689560048e-016 1.37782865707122e-017 1.0
outer loop
vertex -57.5 2.5 20.0
vertex -55.0 -5.0 20.0
vertex -55.0 -1.40998324127395e-015 20.0
endloop
endfacet
facet normal -3.35040689560048e-016 1.37782865707122e-017 1.0
outer loop
vertex -57.5 2.5 20.0
vertex -55.0 -1.40998324127395e-015 20.0
vertex -7.50000000000001 2.5 20.0
endloop
endfacet
facet normal -3.35040689560048e-016 1.37782865707122e-017 1.0
outer loop
vertex -7.50000000000001 2.5 20.0
vertex -55.0 -1.40998324127395e-015 20.0
vertex -5.00000000000002 -1.40998324127395e-015 20.0
endloop
endfacet
facet normal -3.35040689560048e-016 1.37782865707122e-017 1.0
outer loop
vertex -7.50000000000001 2.5 20.0
vertex -5.00000000000002 -1.40998324127395e-015 20.0
vertex -7.50000000000001 87.5 20.0
endloop
endfacet
facet normal -3.35040689560048e-016 1.37782865707122e-017 1.0
outer loop
vertex -7.50000000000001 87.5 20.0
vertex -5.00000000000002 -1.40998324127395e-015 20.0
vertex -5.00000000000002 87.5 20.0
endloop
endfacet
facet normal -3.35040689560048e-016 1.37782865707122e-017 1.0
outer loop
vertex -59.9999999999999 -1.40998324127395e-015 20.0
vertex -62.5 -1.40998324127395e-015 20.0
vertex -59.9999999999999 -2.5 20.0
endloop
endfacet
facet normal 0.0 -1.0 0.0
outer loop
vertex -55.0 -5.0 20.0
vertex -62.4999999999999 -5.0 -1.40998324127395e-014
vertex -54.9999999999999 -5.0 -4.22994972382185e-014
endloop
endfacet
facet normal 0.0 -1.0 0.0
outer loop
vertex -62.4999999999999 -5.0 -1.40998324127395e-014
vertex -55.0 -5.0 20.0
vertex -62.5 -5.0 20.0
endloop
endfacet
facet normal -0.0 1.0 -0.0
outer loop
vertex -59.9999999999999 -2.5 -3.38395977905748e-014
vertex -57.5 -2.5 20.0
vertex -57.4999999999999 -2.5 -3.94795307556706e-014
endloop
endfacet
facet normal -0.0 1.0 -0.0
outer loop
vertex -57.5 -2.5 20.0
vertex -59.9999999999999 -2.5 -3.38395977905748e-014
vertex -59.9999999999999 -2.5 20.0
endloop
endfacet
facet normal -0.0 1.0 -0.0
outer loop
vertex -62.4999999999999 -1.40998324127395e-015 -1.40998324127395e-014
vertex -59.9999999999999 -1.40998324127395e-015 20.0
vertex -59.9999999999999 -1.40998324127395e-015 -3.38395977905748e-014
endloop
endfacet
facet normal -0.0 1.0 -0.0
outer loop
vertex -59.9999999999999 -1.40998324127395e-015 20.0
vertex -62.4999999999999 -1.40998324127395e-015 -1.40998324127395e-014
vertex -62.5 -1.40998324127395e-015 20.0
endloop
endfacet
facet normal 1.0 -0.0 -0.0
outer loop
vertex -59.9999999999999 -1.40998324127395e-015 -3.38395977905748e-014
vertex -59.9999999999999 -2.5 20.0
vertex -59.9999999999999 -2.5 -3.38395977905748e-014
endloop
endfacet
facet normal 1.0 -0.0 -0.0
outer loop
vertex -59.9999999999999 -2.5 20.0
vertex -59.9999999999999 -1.40998324127395e-015 -3.38395977905748e-014
vertex -59.9999999999999 -1.40998324127395e-015 20.0
endloop
endfacet
facet normal -0.0 1.0 -0.0
outer loop
vertex -57.5 2.5 20.0
vertex -7.5 2.5 -1.23373533611471e-015
vertex -57.4999999999999 2.5 -3.94795307556706e-014
endloop
endfacet
facet normal -0.0 1.0 -0.0
outer loop
vertex -7.5 2.5 -1.23373533611471e-015
vertex -57.5 2.5 20.0
vertex -7.50000000000001 2.5 20.0
endloop
endfacet
facet normal -1.0 0.0 -3.38395977905748e-015
outer loop
vertex -57.5 2.5 20.0
vertex -57.4999999999999 -2.5 -3.94795307556706e-014
vertex -57.5 -2.5 20.0
endloop
endfacet
facet normal -1.0 0.0 -3.38395977905748e-015
outer loop
vertex -57.4999999999999 -2.5 -3.94795307556706e-014
vertex -57.5 2.5 20.0
vertex -57.4999999999999 2.5 -3.94795307556706e-014
endloop
endfacet
facet normal 1.0 -0.0 3.38395977905747e-015
outer loop
vertex -54.9999999999999 -1.40998324127395e-015 -4.22994972382185e-014
vertex -55.0 -5.0 20.0
vertex -54.9999999999999 -5.0 -4.22994972382185e-014
endloop
endfacet
facet normal 1.0 -0.0 3.38395977905747e-015
outer loop
vertex -55.0 -5.0 20.0
vertex -54.9999999999999 -1.40998324127395e-015 -4.22994972382185e-014
vertex -55.0 -1.40998324127395e-015 20.0
endloop
endfacet
facet normal 1.0 -0.0 6.34492458573277e-016
outer loop
vertex -5.0 87.5 0.0
vertex -5.00000000000002 -1.40998324127395e-015 20.0
vertex -5.0 -1.40998324127395e-015 0.0
endloop
endfacet
facet normal 1.0 -0.0 6.34492458573277e-016
outer loop
vertex -5.00000000000002 -1.40998324127395e-015 20.0
vertex -5.0 87.5 0.0
vertex -5.00000000000002 87.5 20.0
endloop
endfacet
facet normal 0.0 -1.0 0.0
outer loop
vertex -5.0 -1.40998324127395e-015 0.0
vertex -55.0 -1.40998324127395e-015 20.0
vertex -54.9999999999999 -1.40998324127395e-015 -4.22994972382185e-014
endloop
endfacet
facet normal 0.0 -1.0 0.0
outer loop
vertex -55.0 -1.40998324127395e-015 20.0
vertex -5.0 -1.40998324127395e-015 0.0
vertex -5.00000000000002 -1.40998324127395e-015 20.0
endloop
endfacet
facet normal -0.0 1.0 -0.0
outer loop
vertex -15.5 87.5 9.99999999999999
vertex -5.0 87.5 0.0
vertex -15.5 87.5 -9.16489106828067e-015
endloop
endfacet
facet normal -0.0 1.0 -0.0
outer loop
vertex -5.0 87.5 0.0
vertex -15.5 87.5 9.99999999999999
vertex -7.50000000000001 87.5 9.99999999999999
endloop
endfacet
facet normal -0.0 1.0 -0.0
outer loop
vertex -5.0 87.5 0.0
vertex -7.50000000000001 87.5 9.99999999999999
vertex -5.00000000000002 87.5 20.0
endloop
endfacet
facet normal -0.0 1.0 -0.0
outer loop
vertex -5.00000000000002 87.5 20.0
vertex -7.50000000000001 87.5 9.99999999999999
vertex -7.50000000000001 87.5 20.0
endloop
endfacet
facet normal -1.0 1.50786349470473e-032 -5.6399329650958e-016
outer loop
vertex -7.50000000000001 87.5 20.0
vertex -7.5 2.5 -1.23373533611471e-015
vertex -7.50000000000001 2.5 20.0
endloop
endfacet
facet normal -1.0 1.50786349470473e-032 -5.6399329650958e-016
outer loop
vertex -7.5 2.5 -1.23373533611471e-015
vertex -7.50000000000001 87.5 20.0
vertex -7.50000000000001 85.0000000000001 9.99999999999999
endloop
endfacet
facet normal -1.0 1.50786349470473e-032 -5.6399329650958e-016
outer loop
vertex -7.50000000000001 85.0000000000001 9.99999999999999
vertex -7.50000000000001 87.5 20.0
vertex -7.50000000000001 87.5 9.99999999999999
endloop
endfacet
facet normal -1.0 1.50786349470473e-032 -5.6399329650958e-016
outer loop
vertex -7.5 85.0000000000001 -1.23373533611471e-015
vertex -7.5 2.5 -1.23373533611471e-015
vertex -7.50000000000001 85.0000000000001 9.99999999999999
endloop
endfacet
facet normal -1.0 0.0 -5.63993296509579e-016
outer loop
vertex -15.5 87.5 9.99999999999999
vertex -15.5 85.0000000000001 -9.16489106828067e-015
vertex -15.5 85.0000000000001 9.99999999999999
endloop
endfacet
facet normal -1.0 0.0 -5.63993296509579e-016
outer loop
vertex -15.5 85.0000000000001 -9.16489106828067e-015
vertex -15.5 87.5 9.99999999999999
vertex -15.5 87.5 -9.16489106828067e-015
endloop
endfacet
facet normal 0.0 -1.0 0.0
outer loop
vertex -7.5 85.0000000000001 -1.23373533611471e-015
vertex -15.5 85.0000000000001 9.99999999999999
vertex -15.5 85.0000000000001 -9.16489106828067e-015
endloop
endfacet
facet normal 0.0 -1.0 0.0
outer loop
vertex -15.5 85.0000000000001 9.99999999999999
vertex -7.5 85.0000000000001 -1.23373533611471e-015
vertex -7.50000000000001 85.0000000000001 9.99999999999999
endloop
endfacet
facet normal -0.0 -0.0 1.0
outer loop
vertex -7.50000000000001 85.0000000000001 9.99999999999999
vertex -15.5 87.5 9.99999999999999
vertex -15.5 85.0000000000001 9.99999999999999
endloop
endfacet
facet normal -0.0 -0.0 1.0
outer loop
vertex -15.5 87.5 9.99999999999999
vertex -7.50000000000001 85.0000000000001 9.99999999999999
vertex -7.50000000000001 87.5 9.99999999999999
endloop
endfacet
facet normal -0.0 1.0 -0.0
outer loop
vertex 5.04146553549495 87.5 5.78093128922319e-014
vertex 15.5414655354949 87.5 10.0
vertex 15.5414655354949 87.5 3.52495810318487e-014
endloop
endfacet
facet normal -0.0 1.0 -0.0
outer loop
vertex 15.5414655354949 87.5 10.0
vertex 5.04146553549495 87.5 5.78093128922319e-014
vertex 7.54146553549492 87.5 10.0000000000001
endloop
endfacet
facet normal -0.0 1.0 -0.0
outer loop
vertex 7.54146553549492 87.5 10.0000000000001
vertex 5.04146553549495 87.5 5.78093128922319e-014
vertex 5.04146553549495 87.5 20.0
endloop
endfacet
facet normal -0.0 1.0 -0.0
outer loop
vertex 7.54146553549492 87.5 10.0000000000001
vertex 5.04146553549495 87.5 20.0
vertex 7.5414655354949 87.5 20.0
endloop
endfacet
facet normal 0.0 -1.0 0.0
outer loop
vertex 62.5414655354949 -5.0 20.0
vertex 55.0414655354949 -5.0 5.78093128922319e-014
vertex 62.5414655354949 -5.0 1.26898491714655e-014
endloop
endfacet
facet normal 0.0 -1.0 0.0
outer loop
vertex 55.0414655354949 -5.0 5.78093128922319e-014
vertex 62.5414655354949 -5.0 20.0
vertex 55.0414655354949 -5.0 20.0000000000001
endloop
endfacet
facet normal -5.52217598208134e-016 -1.28299851813182e-016 -1.0
outer loop
vertex 5.04146553549495 87.5 5.78093128922319e-014
vertex 7.54146553549492 85.0000000000001 4.65294469620403e-014
vertex 5.04146553549495 7.04991620636974e-016 5.78093128922319e-014
endloop
endfacet
facet normal -5.52217598208134e-016 -1.28299851813182e-016 -1.0
outer loop
vertex 7.54146553549492 85.0000000000001 4.65294469620403e-014
vertex 5.04146553549495 87.5 5.78093128922319e-014
vertex 15.5414655354949 87.5 3.52495810318487e-014
endloop
endfacet
facet normal -5.52217598208134e-016 -1.28299851813182e-016 -1.0
outer loop
vertex 7.54146553549492 85.0000000000001 4.65294469620403e-014
vertex 15.5414655354949 87.5 3.52495810318487e-014
vertex 15.5414655354949 85.0000000000001 3.52495810318487e-014
endloop
endfacet
facet normal -5.52217598208134e-016 -1.28299851813182e-016 -1.0
outer loop
vertex 62.5414655354949 7.04991620636974e-016 1.26898491714655e-014
vertex 60.0414655354948 -2.5 1.26898491714655e-014
vertex 60.0414655354948 7.04991620636974e-016 1.26898491714655e-014
endloop
endfacet
facet normal -5.52217598208134e-016 -1.28299851813182e-016 -1.0
outer loop
vertex 5.04146553549495 7.04991620636974e-016 5.78093128922319e-014
vertex 7.54146553549492 2.5 4.65294469620403e-014
vertex 55.0414655354949 7.04991620636974e-016 5.78093128922319e-014
endloop
endfacet
facet normal -5.52217598208134e-016 -1.28299851813182e-016 -1.0
outer loop
vertex 7.54146553549492 2.5 4.65294469620403e-014
vertex 5.04146553549495 7.04991620636974e-016 5.78093128922319e-014
vertex 7.54146553549492 85.0000000000001 4.65294469620403e-014
endloop
endfacet
facet normal -5.52217598208134e-016 -1.28299851813182e-016 -1.0
outer loop
vertex 55.0414655354949 7.04991620636974e-016 5.78093128922319e-014
vertex 7.54146553549492 2.5 4.65294469620403e-014
vertex 57.5414655354949 2.5 3.52495810318487e-014
endloop
endfacet
facet normal -5.52217598208134e-016 -1.28299851813182e-016 -1.0
outer loop
vertex 55.0414655354949 7.04991620636974e-016 5.78093128922319e-014
vertex 57.5414655354949 2.5 3.52495810318487e-014
vertex 55.0414655354949 -5.0 5.78093128922319e-014
endloop
endfacet
facet normal -5.52217598208134e-016 -1.28299851813182e-016 -1.0
outer loop
vertex 55.0414655354949 -5.0 5.78093128922319e-014
vertex 57.5414655354949 2.5 3.52495810318487e-014
vertex 57.5414655354949 -2.5 3.52495810318487e-014
endloop
endfacet
facet normal -5.52217598208134e-016 -1.28299851813182e-016 -1.0
outer loop
vertex 55.0414655354949 -5.0 5.78093128922319e-014
vertex 57.5414655354949 -2.5 3.52495810318487e-014
vertex 62.5414655354949 -5.0 1.26898491714655e-014
endloop
endfacet
facet normal -5.52217598208134e-016 -1.28299851813182e-016 -1.0
outer loop
vertex 62.5414655354949 -5.0 1.26898491714655e-014
vertex 57.5414655354949 -2.5 3.52495810318487e-014
vertex 60.0414655354948 -2.5 1.26898491714655e-014
endloop
endfacet
facet normal -5.52217598208134e-016 -1.28299851813182e-016 -1.0
outer loop
vertex 62.5414655354949 -5.0 1.26898491714655e-014
vertex 60.0414655354948 -2.5 1.26898491714655e-014
vertex 62.5414655354949 7.04991620636974e-016 1.26898491714655e-014
endloop
endfacet
facet normal 5.54784677096382e-017 5.08426647765891e-017 1.0
outer loop
vertex 55.0414655354949 -5.0 20.0000000000001
vertex 57.5414655354949 -2.5 20.0
vertex 55.0414655354949 7.04991620636974e-016 20.0000000000001
endloop
endfacet
facet normal 5.54784677096382e-017 5.08426647765891e-017 1.0
outer loop
vertex 57.5414655354949 -2.5 20.0
vertex 55.0414655354949 -5.0 20.0000000000001
vertex 62.5414655354949 -5.0 20.0
endloop
endfacet
facet normal 5.54784677096382e-017 5.08426647765891e-017 1.0
outer loop
vertex 57.5414655354949 -2.5 20.0
vertex 62.5414655354949 -5.0 20.0
vertex 60.0414655354948 -2.5 20.0
endloop
endfacet
facet normal 5.54784677096382e-017 5.08426647765891e-017 1.0
outer loop
vertex 60.0414655354948 -2.5 20.0
vertex 62.5414655354949 -5.0 20.0
vertex 60.0414655354948 7.04991620636974e-016 20.0
endloop
endfacet
facet normal 5.54784677096382e-017 5.08426647765891e-017 1.0
outer loop
vertex 60.0414655354948 7.04991620636974e-016 20.0
vertex 62.5414655354949 -5.0 20.0
vertex 62.5414655354949 7.04991620636974e-016 20.0
endloop
endfacet
facet normal 5.54784677096382e-017 5.08426647765891e-017 1.0
outer loop
vertex 5.04146553549495 7.04991620636974e-016 20.0
vertex 7.5414655354949 2.5 20.0
vertex 5.04146553549495 87.5 20.0
endloop
endfacet
facet normal 5.54784677096382e-017 5.08426647765891e-017 1.0
outer loop
vertex 7.5414655354949 2.5 20.0
vertex 5.04146553549495 7.04991620636974e-016 20.0
vertex 55.0414655354949 7.04991620636974e-016 20.0000000000001
endloop
endfacet
facet normal 5.54784677096382e-017 5.08426647765891e-017 1.0
outer loop
vertex 7.5414655354949 2.5 20.0
vertex 55.0414655354949 7.04991620636974e-016 20.0000000000001
vertex 57.5414655354949 2.5 20.0
endloop
endfacet
facet normal 5.54784677096382e-017 5.08426647765891e-017 1.0
outer loop
vertex 57.5414655354949 2.5 20.0
vertex 55.0414655354949 7.04991620636974e-016 20.0000000000001
vertex 57.5414655354949 -2.5 20.0
endloop
endfacet
facet normal 5.54784677096382e-017 5.08426647765891e-017 1.0
outer loop
vertex 7.5414655354949 87.5 20.0
vertex 5.04146553549495 87.5 20.0
vertex 7.5414655354949 2.5 20.0
endloop
endfacet
facet normal 1.0 -0.0 -0.0
outer loop
vertex 62.5414655354949 7.04991620636974e-016 1.26898491714655e-014
vertex 62.5414655354949 -5.0 20.0
vertex 62.5414655354949 -5.0 1.26898491714655e-014
endloop
endfacet
facet normal 1.0 -0.0 -0.0
outer loop
vertex 62.5414655354949 -5.0 20.0
vertex 62.5414655354949 7.04991620636974e-016 1.26898491714655e-014
vertex 62.5414655354949 7.04991620636974e-016 20.0
endloop
endfacet
facet normal -1.0 0.0 -4.51194637207664e-015
outer loop
vertex 55.0414655354949 7.04991620636974e-016 20.0000000000001
vertex 55.0414655354949 -5.0 5.78093128922319e-014
vertex 55.0414655354949 -5.0 20.0000000000001
endloop
endfacet
facet normal -1.0 0.0 -4.51194637207664e-015
outer loop
vertex 55.0414655354949 -5.0 5.78093128922319e-014
vertex 55.0414655354949 7.04991620636974e-016 20.0000000000001
vertex 55.0414655354949 7.04991620636974e-016 5.78093128922319e-014
endloop
endfacet
facet normal -1.0 0.0 0.0
outer loop
vertex 60.0414655354948 7.04991620636974e-016 20.0
vertex 60.0414655354948 -2.5 1.26898491714655e-014
vertex 60.0414655354948 -2.5 20.0
endloop
endfacet
facet normal -1.0 0.0 0.0
outer loop
vertex 60.0414655354948 -2.5 1.26898491714655e-014
vertex 60.0414655354948 7.04991620636974e-016 20.0
vertex 60.0414655354948 7.04991620636974e-016 1.26898491714655e-014
endloop
endfacet
facet normal 1.0 -0.0 2.25597318603832e-015
outer loop
vertex 57.5414655354949 2.5 3.52495810318487e-014
vertex 57.5414655354949 -2.5 20.0
vertex 57.5414655354949 -2.5 3.52495810318487e-014
endloop
endfacet
facet normal 1.0 -0.0 2.25597318603832e-015
outer loop
vertex 57.5414655354949 -2.5 20.0
vertex 57.5414655354949 2.5 3.52495810318487e-014
vertex 57.5414655354949 2.5 20.0
endloop
endfacet
facet normal -0.0 1.0 -0.0
outer loop
vertex 57.5414655354949 -2.5 3.52495810318487e-014
vertex 60.0414655354948 -2.5 20.0
vertex 60.0414655354948 -2.5 1.26898491714655e-014
endloop
endfacet
facet normal -0.0 1.0 -0.0
outer loop
vertex 60.0414655354948 -2.5 20.0
vertex 57.5414655354949 -2.5 3.52495810318487e-014
vertex 57.5414655354949 -2.5 20.0
endloop
endfacet
facet normal -0.0 1.0 -0.0
outer loop
vertex 60.0414655354948 7.04991620636974e-016 20.0
vertex 62.5414655354949 7.04991620636974e-016 1.26898491714655e-014
vertex 60.0414655354948 7.04991620636974e-016 1.26898491714655e-014
endloop
endfacet
facet normal -0.0 1.0 -0.0
outer loop
vertex 62.5414655354949 7.04991620636974e-016 1.26898491714655e-014
vertex 60.0414655354948 7.04991620636974e-016 20.0
vertex 62.5414655354949 7.04991620636974e-016 20.0
endloop
endfacet
facet normal 0.0 -1.0 0.0
outer loop
vertex 55.0414655354949 7.04991620636974e-016 20.0000000000001
vertex 5.04146553549495 7.04991620636974e-016 5.78093128922319e-014
vertex 55.0414655354949 7.04991620636974e-016 5.78093128922319e-014
endloop
endfacet
facet normal 0.0 -1.0 0.0
outer loop
vertex 5.04146553549495 7.04991620636974e-016 5.78093128922319e-014
vertex 55.0414655354949 7.04991620636974e-016 20.0000000000001
vertex 5.04146553549495 7.04991620636974e-016 20.0
endloop
endfacet
facet normal -0.0 1.0 -0.0
outer loop
vertex 7.54146553549492 2.5 4.65294469620403e-014
vertex 57.5414655354949 2.5 20.0
vertex 57.5414655354949 2.5 3.52495810318487e-014
endloop
endfacet
facet normal -0.0 1.0 -0.0
outer loop
vertex 57.5414655354949 2.5 20.0
vertex 7.54146553549492 2.5 4.65294469620403e-014
vertex 7.5414655354949 2.5 20.0
endloop
endfacet
facet normal -1.0 0.0 0.0
outer loop
vertex 5.04146553549495 87.5 20.0
vertex 5.04146553549495 7.04991620636974e-016 5.78093128922319e-014
vertex 5.04146553549495 7.04991620636974e-016 20.0
endloop
endfacet
facet normal -1.0 0.0 0.0
outer loop
vertex 5.04146553549495 7.04991620636974e-016 5.78093128922319e-014
vertex 5.04146553549495 87.5 20.0
vertex 5.04146553549495 87.5 5.78093128922319e-014
endloop
endfacet
facet normal 1.0 -6.73087463243275e-017 1.13219338966443e-015
outer loop
vertex 7.54146553549492 85.0000000000001 4.65294469620403e-014
vertex 7.5414655354949 2.5 20.0
vertex 7.54146553549492 2.5 4.65294469620403e-014
endloop
endfacet
facet normal 1.0 -6.73087463243275e-017 1.13219338966443e-015
outer loop
vertex 7.5414655354949 2.5 20.0
vertex 7.54146553549492 85.0000000000001 4.65294469620403e-014
vertex 7.54146553549492 85.0000000000001 10.0000000000001
endloop
endfacet
facet normal 1.0 -6.73087463243275e-017 1.13219338966443e-015
outer loop
vertex 7.5414655354949 2.5 20.0
vertex 7.54146553549492 85.0000000000001 10.0000000000001
vertex 7.5414655354949 87.5 20.0
endloop
endfacet
facet normal 1.0 -6.73087463243275e-017 1.13219338966443e-015
outer loop
vertex 7.5414655354949 87.5 20.0
vertex 7.54146553549492 85.0000000000001 10.0000000000001
vertex 7.54146553549492 87.5 10.0000000000001
endloop
endfacet
facet normal 1.0 8.57248341778348e-031 -7.89590615113411e-015
outer loop
vertex 15.5414655354949 87.5 3.52495810318487e-014
vertex 15.5414655354949 85.0000000000001 10.0
vertex 15.5414655354949 85.0000000000001 3.52495810318487e-014
endloop
endfacet
facet normal 1.0 8.57248341778348e-031 -7.89590615113411e-015
outer loop
vertex 15.5414655354949 85.0000000000001 10.0
vertex 15.5414655354949 87.5 3.52495810318487e-014
vertex 15.5414655354949 87.5 10.0
endloop
endfacet
facet normal 4.22994972382184e-015 -0.0 1.0
outer loop
vertex 15.5414655354949 85.0000000000001 10.0
vertex 7.54146553549492 87.5 10.0000000000001
vertex 7.54146553549492 85.0000000000001 10.0000000000001
endloop
endfacet
facet normal 4.22994972382184e-015 -0.0 1.0
outer loop
vertex 7.54146553549492 87.5 10.0000000000001
vertex 15.5414655354949 85.0000000000001 10.0
vertex 15.5414655354949 87.5 10.0
endloop
endfacet
facet normal 3.17094412137408e-030 -1.0 1.12798659301916e-015
outer loop
vertex 15.5414655354949 85.0000000000001 10.0
vertex 7.54146553549492 85.0000000000001 4.65294469620403e-014
vertex 15.5414655354949 85.0000000000001 3.52495810318487e-014
endloop
endfacet
facet normal 3.17094412137408e-030 -1.0 1.12798659301916e-015
outer loop
vertex 7.54146553549492 85.0000000000001 4.65294469620403e-014
vertex 15.5414655354949 85.0000000000001 10.0
vertex 7.54146553549492 85.0000000000001 10.0000000000001
endloop
endfacet
endsolid hanger
